<svg width="102" height="80" viewBox="0 0 102 80" fill="none" xmlns="http://www.w3.org/2000/svg">
<path fill-rule="evenodd" clip-rule="evenodd" d="M75 52.9336V59.317V63.0627L59.1132 51.2255L58.8243 51.0103L58.5173 50.8219L57.6092 50.2646C55.0915 48.7197 52.1952 47.902 49.2412 47.902H23.5H12V11L90 11V48.5L90 49.5186L81.2241 51.5166L75 52.9336ZM75 73.0392L83 79V69.0235V59.317L91.7759 57.319C95.4168 56.4901 98 53.2527 98 49.5186V48.5V11C98 6.58172 94.4183 3 90 3H12C7.58172 3 4 6.58172 4 11V47.902C4 52.3202 7.58172 55.902 12 55.902H23.5H49.2412C50.7182 55.902 52.1664 56.3108 53.4252 57.0833L54.3333 57.6405L75 73.0392Z" fill="white"/>
<path d="M38.25 17.25L48.2658 41.2908L51.8217 30.8217L62.2908 27.2658L38.25 17.25Z" stroke="white" stroke-width="4" stroke-linecap="round" stroke-linejoin="round"/>
<path d="M52.4167 31.4167L60.9167 39.9167" stroke="white" stroke-width="4" stroke-linecap="round" stroke-linejoin="round"/>
</svg>
